PathFileType	4	(X/Y/Z)	C:/Users/opensim2020/Desktop/walking_exp_matlab/subject03_walking12_straight_03.trc																																																																																																																																														
DataRate	CameraRate	NumFrames	NumMarkers	Units	OrigDataRate	OrigDataStartFrame	OrigNumFrames																																																																																																																																										
100	100	5	48	mm	100	1774	185																																																																																																																																										
Frame#	Time	LFHD			RFHD			LBHD			RBHD			C7			T10			CLAV			STRN			RBAK			LSHO			LUPA			LELB			LFRM			LWRA			LWRB			LFIN			RSHO			RUPA			RELB			RFRM			RWRA			RWRB			RFIN			LASI			RASI			LPSI			RPSI			LTHI			LKNE			LTIB			LANK			LHEE			LTOE			RTHI			RKNE			RTIB			RANK			RHEE			RTOE			*39			*40			*41			*42			*43			*44			*45			*46			*47		
		X1	Y1	Z1	X2	Y2	Z2	X3	Y3	Z3	X4	Y4	Z4	X5	Y5	Z5	X6	Y6	Z6	X7	Y7	Z7	X8	Y8	Z8	X9	Y9	Z9	X10	Y10	Z10	X11	Y11	Z11	X12	Y12	Z12	X13	Y13	Z13	X14	Y14	Z14	X15	Y15	Z15	X16	Y16	Z16	X17	Y17	Z17	X18	Y18	Z18	X19	Y19	Z19	X20	Y20	Z20	X21	Y21	Z21	X22	Y22	Z22	X23	Y23	Z23	X24	Y24	Z24	X25	Y25	Z25	X26	Y26	Z26	X27	Y27	Z27	X28	Y28	Z28	X29	Y29	Z29	X30	Y30	Z30	X31	Y31	Z31	X32	Y32	Z32	X33	Y33	Z33	X34	Y34	Z34	X35	Y35	Z35	X36	Y36	Z36	X37	Y37	Z37	X38	Y38	Z38	X39	Y39	Z39	X40	Y40	Z40	X41	Y41	Z41	X42	Y42	Z42	X43	Y43	Z43	X44	Y44	Z44	X45	Y45	Z45	X46	Y46	Z46	X47	Y47	Z47	X48	Y48	Z48
																																																																																																																																																	
116	1.15	358.72839	1620.90747	-1049.95105	323.36563	1618.5459	-921.78918	235.64967	1575.97925	-1082.05286	205.38356	1572.76025	-954.9715	198.38503	1405.90369	-1033.59766	180.78116	1093.28955	-1028.38489	321.69077	1338.06506	-1009.25159	378.36462	1176.44617	-1007.29321	141.54964	1225.68127	-949.41217	299.41714	1373.09192	-1170.20239	341.59821	1184.64404	-1245.60022	382.93002	1068.99121	-1258.22839	449.13977	956.93793	-1247.20947	499.39685	851.88263	-1208.47607	487.70428	850.39716	-1262.80359	531.51837	780.74237	-1247.93152	241.78841	1359.22705	-861.27008	226.94426	1136.73743	-791.65735	237.83612	1024.13599	-777.74628	248.67844	887.43988	-774.30988	282.07739	791.0863	-804.16309	242.77695	786.7981	-767.40985	264.42694	714.94232	-773.84906	351.12369	937.97559	-1130.41174	331.97003	930.44849	-894.85968	186.75232	962.80536	-1092.09302	175.92024	958.32916	-943.91821	284.08655	636.59717	-1177.3938	267.50391	460.00122	-1139.99585	176.26434	279.9216	-1148.69897	106.21257	80.51015	-1111.20728	56.54811	53.1269	-1077.87671	249.10014	28.681	-1076.85254	353.55722	640.33057	-855.70435	439.20016	482.17545	-884.55304	385.67313	295.51843	-891.82825	336.82605	87.58397	-945.40033	293.26294	59.05656	-1002.51422	467.29901	42.36788	-948.24274	NaN	NaN	NaN	NaN	NaN	NaN	NaN	NaN	NaN	NaN	NaN	NaN	NaN	NaN	NaN	NaN	NaN	NaN	NaN	NaN	NaN	NaN	NaN	NaN	NaN	NaN	NaN
117	1.16	371.95468	1620.44104	-1048.66589	336.522	1617.67603	-920.49335	248.79359	1575.75488	-1080.94629	218.534	1572.20715	-953.90131	211.37186	1405.55579	-1032.88892	193.3136	1092.86792	-1027.83484	334.479	1337.47998	-1008.72369	391.08243	1175.83765	-1007.45203	154.48015	1225.12146	-949.16895	312.18002	1373.02454	-1169.33521	357.78	1186.03979	-1244.52759	401.50589	1071.32922	-1256.9248	471.09998	961.63123	-1245.21655	525.10834	858.89594	-1205.37207	513.27258	856.19788	-1259.47278	559.39838	788.15057	-1243.80542	254.70059	1358.42676	-860.67804	237.01503	1136.1394	-791.52405	246.38179	1023.33966	-777.96405	255.02101	886.4671	-774.86938	286.8927	789.7124	-804.87445	247.38774	785.89142	-768.32007	268.02924	713.6322	-775.13696	362.74323	937.32465	-1131.09839	345.92218	930.35736	-895.31006	198.86641	962.08472	-1091.09021	189.22728	957.80737	-943.02521	291.19849	636.59351	-1176.89624	271.47903	460.28	-1140.05164	178.42534	281.0856	-1148.51453	106.76701	82.09323	-1111.09302	57.06285	55.16214	-1077.73206	249.25032	28.76964	-1076.87878	368.63351	640.78851	-854.97217	454.15152	482.71652	-884.61029	411.94827	292.90631	-890.79919	378.4256	81.67431	-943.9953	336.96429	50.8338	-1001.18677	511.6304	43.74478	-946.92737	276.87897	1679.10168	-1018.57275	NaN	NaN	NaN	NaN	NaN	NaN	NaN	NaN	NaN	NaN	NaN	NaN	NaN	NaN	NaN	NaN	NaN	NaN	NaN	NaN	NaN	NaN	NaN	NaN
118	1.17	385.21237	1619.72913	-1047.35303	349.71222	1616.57935	-919.25818	262.02899	1575.26318	-1079.80334	231.59593	1571.3291	-952.80859	224.39046	1405.02344	-1032.07458	205.8327	1092.21265	-1027.11414	347.41425	1336.67773	-1008.21881	403.7796	1174.93433	-1007.58044	167.4075	1224.50635	-948.63745	324.85883	1372.64758	-1168.43555	373.70456	1187.28577	-1243.4071	419.85876	1073.5564	-1255.50891	492.76263	966.25812	-1243.09302	550.19714	865.94379	-1202.19214	538.44641	862.04999	-1256.15979	586.78687	795.75793	-1239.58411	267.85599	1357.79138	-860.01379	247.44069	1135.41333	-791.30347	255.11099	1022.43481	-778.10425	261.62015	885.42059	-775.44995	291.948	788.24341	-805.72498	252.34996	784.89777	-769.25232	271.75583	712.258	-776.23938	374.5871	936.34424	-1131.8009	360.07001	929.99103	-895.62885	211.12587	960.97803	-1090.10522	202.68834	956.92944	-942.0354	298.40479	636.49359	-1176.46179	275.62201	460.25186	-1140.05103	180.80142	282.22327	-1148.21228	107.42092	83.74397	-1110.96655	57.53835	57.35849	-1077.50281	249.25262	28.56626	-1076.84949	382.87366	640.61792	-854.42432	468.62762	482.62903	-884.60132	437.69504	290.62128	-889.64148	419.72275	77.15711	-942.21338	379.93237	44.358	-999.23468	555.07837	45.93946	-945.62408	290.25711	1678.36731	-1017.35992	NaN	NaN	NaN	NaN	NaN	NaN	NaN	NaN	NaN	NaN	NaN	NaN	NaN	NaN	NaN	NaN	NaN	NaN	NaN	NaN	NaN	NaN	NaN	NaN
119	1.18	398.46231	1618.8374	-1045.99255	362.80551	1615.28516	-917.8797	275.28067	1574.52808	-1078.68091	244.81596	1570.14819	-951.73853	237.44296	1404.21619	-1031.19373	218.38959	1091.3429	-1026.19165	360.45068	1335.6355	-1007.72479	416.47034	1173.77808	-1007.75134	180.46172	1223.70703	-947.91205	337.56393	1372.08826	-1167.57043	389.34641	1188.25903	-1242.27234	437.98169	1075.56445	-1254.1366	513.99927	970.76105	-1240.87732	574.70422	873.0202	-1198.84375	563.01794	867.91052	-1252.72705	613.65338	803.52936	-1235.3335	281.41769	1356.40393	-859.32507	258.10648	1134.51172	-790.99835	264.2019	1021.25287	-778.17755	268.91644	884.16364	-775.92212	297.42407	786.74225	-806.61096	257.85608	783.57648	-770.23431	276.01825	710.94666	-777.51019	386.60345	935.45355	-1132.1731	374.33206	929.33417	-895.82794	223.49782	959.5816	-1088.97119	215.9485	955.84583	-940.71045	305.72079	636.28101	-1176.44214	280.23441	460.27484	-1139.89294	183.41565	283.32672	-1147.80286	108.18792	85.53892	-1110.62915	58.12108	59.57332	-1077.09778	249.36508	28.54177	-1076.86853	396.73138	639.81512	-853.27991	482.46848	481.97293	-884.70685	462.8226	288.77829	-888.46179	459.97003	74.14778	-939.97522	422.30148	39.49865	-996.94788	597.32544	49.03204	-943.9549	303.66507	1677.37842	-1015.96106	NaN	NaN	NaN	NaN	NaN	NaN	NaN	NaN	NaN	NaN	NaN	NaN	NaN	NaN	NaN	NaN	NaN	NaN	NaN	NaN	NaN	NaN	NaN	NaN
120	1.19	411.71536	1617.75037	-1044.57666	375.98959	1613.67712	-916.64618	288.58484	1573.58667	-1077.50757	257.98376	1568.79199	-950.63037	250.58897	1403.13232	-1030.22437	231.02701	1090.26648	-1025.05566	373.56323	1334.31763	-1007.16394	429.29599	1172.36572	-1007.98541	193.63918	1222.75952	-946.94366	350.20309	1371.28125	-1166.62793	404.81503	1189.00806	-1241.20544	455.7865	1077.3479	-1252.81335	534.77655	975.13629	-1238.63696	598.57306	879.98547	-1195.43884	587.21057	873.8277	-1249.26904	639.96075	811.4256	-1230.9668	295.16684	1355.14587	-858.52301	269.12741	1133.44702	-790.55115	273.30283	1019.94818	-778.27942	275.83884	882.77405	-776.49744	303.03506	785.0426	-807.43652	263.18085	782.60547	-771.08942	280.56241	709.41077	-778.69861	398.83646	934.31415	-1132.34448	388.7634	928.3623	-895.99988	236.04457	957.99377	-1087.62659	229.76649	954.31805	-939.41718	313.49515	635.94336	-1175.89819	285.07968	459.70172	-1139.86267	186.32164	284.47021	-1147.31897	109.06503	87.22025	-1109.83875	58.85007	61.92915	-1076.58972	249.42264	28.50307	-1076.84058	410.14374	638.37555	-852.00647	496.03464	480.73712	-885.10986	487.33578	287.46362	-887.15271	498.81348	72.60902	-937.10004	463.08844	36.53556	-994.11243	637.81598	53.5253	-941.62903	317.08566	1676.6449	-1014.91156	NaN	NaN	NaN	NaN	NaN	NaN	NaN	NaN	NaN	NaN	NaN	NaN	NaN	NaN	NaN	NaN	NaN	NaN	NaN	NaN	NaN	NaN	NaN	NaN
